<svg width="164" height="19" viewBox="0 0 164 19" fill="none" xmlns="http://www.w3.org/2000/svg">
<path d="M0.852273 3.58807V0.545454H15.1875V3.58807H9.84375V18H6.19602V3.58807H0.852273ZM72.2812 0.545454V18H69.0937L61.4999 7.0142H61.3721V18H57.6817V0.545454H60.9204L68.4545 11.5227H68.6079V0.545454H72.2812ZM86.0102 0.545454H90.5613L95.3681 12.2727H95.5727L100.379 0.545454H104.931V18H101.351V6.6392H101.206L96.6891 17.9148H94.2516L89.7346 6.59659H89.5897V18H86.0102V0.545454ZM147.082 0.545454H151.215L155.195 8.0625H155.366L159.346 0.545454H163.48L157.113 11.8295V18H153.448V11.8295L147.082 0.545454Z" fill="#1E1E1E"/>
<path d="M44.2681 9.27273C44.2681 11.1761 43.9073 12.7955 43.1857 14.1307C42.4698 15.4659 41.4925 16.4858 40.2539 17.1903C39.0209 17.8892 37.6345 18.2386 36.0948 18.2386C34.5436 18.2386 33.1516 17.8864 31.9186 17.1818C30.6857 16.4773 29.7113 15.4574 28.9953 14.1222C28.2794 12.7869 27.9215 11.1705 27.9215 9.27273C27.9215 7.36932 28.2794 5.75 28.9953 4.41477C29.7113 3.07955 30.6857 2.0625 31.9186 1.36364C33.1516 0.659091 34.5436 0.306818 36.0948 0.306818C37.6345 0.306818 39.0209 0.659091 40.2539 1.36364C41.4925 2.0625 42.4698 3.07955 43.1857 4.41477C43.9073 5.75 44.2681 7.36932 44.2681 9.27273ZM40.5266 9.27273C40.5266 8.03977 40.3419 7 39.9726 6.15341C39.609 5.30682 39.0948 4.66477 38.43 4.22727C37.7652 3.78977 36.9868 3.57102 36.0948 3.57102C35.2027 3.57102 34.4243 3.78977 33.7595 4.22727C33.0948 4.66477 32.5777 5.30682 32.2084 6.15341C31.8448 7 31.663 8.03977 31.663 9.27273C31.663 10.5057 31.8448 11.5455 32.2084 12.392C32.5777 13.2386 33.0948 13.8807 33.7595 14.3182C34.4243 14.7557 35.2027 14.9744 36.0948 14.9744C36.9868 14.9744 37.7652 14.7557 38.43 14.3182C39.0948 13.8807 39.609 13.2386 39.9726 12.392C40.3419 11.5455 40.5266 10.5057 40.5266 9.27273ZM134.691 9.27273C134.691 11.1761 134.33 12.7955 133.608 14.1307C132.893 15.4659 131.915 16.4858 130.677 17.1903C129.444 17.8892 128.057 18.2386 126.518 18.2386C124.966 18.2386 123.574 17.8864 122.341 17.1818C121.108 16.4773 120.134 15.4574 119.418 14.1222C118.702 12.7869 118.344 11.1705 118.344 9.27273C118.344 7.36932 118.702 5.75 119.418 4.41477C120.134 3.07955 121.108 2.0625 122.341 1.36364C123.574 0.659091 124.966 0.306818 126.518 0.306818C128.057 0.306818 129.444 0.659091 130.677 1.36364C131.915 2.0625 132.893 3.07955 133.608 4.41477C134.33 5.75 134.691 7.36932 134.691 9.27273ZM130.949 9.27273C130.949 8.03977 130.765 7 130.395 6.15341C130.032 5.30682 129.518 4.66477 128.853 4.22727C128.188 3.78977 127.41 3.57102 126.518 3.57102C125.626 3.57102 124.847 3.78977 124.182 4.22727C123.518 4.66477 123.001 5.30682 122.631 6.15341C122.268 7 122.086 8.03977 122.086 9.27273C122.086 10.5057 122.268 11.5455 122.631 12.392C123.001 13.2386 123.518 13.8807 124.182 14.3182C124.847 14.7557 125.626 14.9744 126.518 14.9744C127.41 14.9744 128.188 14.7557 128.853 14.3182C129.518 13.8807 130.032 13.2386 130.395 12.392C130.765 11.5455 130.949 10.5057 130.949 9.27273Z" fill="#F69C08"/>
</svg>
